<?xml version="1.0" ?><svg enable-background="new 0 0 32 32" version="1.1" viewBox="0 0 32 32" xml:space="preserve" xmlns="http://www.w3.org/2000/svg" xmlns:xlink="http://www.w3.org/1999/xlink"><g id="Full"><linearGradient gradientUnits="userSpaceOnUse" id="Cat_5_" x1="16" x2="16" y1="32" y2="0"><stop offset="0" style="stop-color:#FF2D76"/><stop offset="1" style="stop-color:#FB0000"/></linearGradient><path d="M21.806,32h-4.262h-4.267c0,0,0.012-2.531,0-4.267c-5.838,1.257-7.467-3.2-7.467-3.2   c-1.067-2.133-2.133-3.2-2.133-3.2c-2.133-1.267,0-1.067,0-1.067c2.133,0,3.2,2.133,3.2,2.133c1.872,3.179,5.203,2.667,6.4,2.133   c0-1.067,0.467-2.679,1.067-3.2c-4.659-0.525-8.538-3.2-8.538-8.533s1.071-6.4,2.138-7.467C7.728,4.807,6.835,2.864,7.976,0   c0,0,2.096,0,4.229,3.2c1.057-1.057,4.267-1.067,5.334-1.067c1.065,0,4.275,0.01,5.331,1.067C25.005,0,27.106,0,27.106,0   c1.14,2.864,0.249,4.807,0.032,5.333c1.067,1.067,2.133,2.133,2.133,7.467s-3.873,8.009-8.533,8.533   c0.601,0.521,1.067,2.356,1.067,3.2V32H21.806z" fill="url(#Cat_5_)" id="Cat_3_"/></g></svg>